<svg width="20" height="21" viewBox="0 0 20 21" fill="none" xmlns="http://www.w3.org/2000/svg">
<path d="M14.882 13.4455L14.6225 12.212L14.363 13.4455C14.2777 13.8512 14.0761 14.2233 13.783 14.5165C13.4898 14.8097 13.1177 15.0112 12.7119 15.0966L11.4785 15.356L12.7119 15.6155C13.1177 15.7008 13.4898 15.9024 13.783 16.1956C14.0761 16.4887 14.2777 16.8609 14.363 17.2666L14.6225 18.5L14.882 17.2666C14.9673 16.8609 15.1689 16.4887 15.462 16.1956C15.7552 15.9024 16.1273 15.7008 16.5331 15.6155L17.7665 15.356L16.5331 15.0966C16.1273 15.0112 15.7552 14.8097 15.462 14.5165C15.1689 14.2233 14.9673 13.8512 14.882 13.4455Z" fill="currentColor"/>
<path d="M9.72452 16.3838C6.01239 16.3838 2.23358 12.9011 2.23358 9.36392C2.23358 8.7753 2.23358 8.17338 2.23358 7.59658C2.23358 5.65755 3.80548 4.08599 5.74451 4.08599H9.72452M9.72452 4.08599H13.7045C15.6436 4.08599 17.2155 5.65754 17.2155 7.59657C17.2155 8.17338 17.2155 8.7753 17.2155 9.36392C17.2155 10.0414 17.0973 10.6987 16.8823 11.3219M9.72452 4.08599V2.5" stroke="currentColor" stroke-width="1.25" stroke-linecap="round"/>
<circle cx="6.80031" cy="9.44252" r="1.17031" fill="currentColor"/>
<ellipse cx="12.6488" cy="9.44252" rx="1.17031" ry="1.17031" fill="currentColor"/>
</svg>
