<svg width="20" height="21" viewBox="0 0 20 21" fill="none" xmlns="http://www.w3.org/2000/svg">
<path d="M9.99998 11.3333C10.4602 11.3333 10.8333 10.9602 10.8333 10.5C10.8333 10.0397 10.4602 9.66663 9.99998 9.66663C9.53974 9.66663 9.16665 10.0397 9.16665 10.5C9.16665 10.9602 9.53974 11.3333 9.99998 11.3333Z" stroke="#979797" stroke-width="1.5" stroke-linecap="round" stroke-linejoin="round"/>
<path d="M15.8333 11.3333C16.2935 11.3333 16.6666 10.9602 16.6666 10.5C16.6666 10.0397 16.2935 9.66663 15.8333 9.66663C15.3731 9.66663 15 10.0397 15 10.5C15 10.9602 15.3731 11.3333 15.8333 11.3333Z" stroke="#979797" stroke-width="1.5" stroke-linecap="round" stroke-linejoin="round"/>
<path d="M4.16665 11.3333C4.62688 11.3333 4.99998 10.9602 4.99998 10.5C4.99998 10.0397 4.62688 9.66663 4.16665 9.66663C3.70641 9.66663 3.33331 10.0397 3.33331 10.5C3.33331 10.9602 3.70641 11.3333 4.16665 11.3333Z" stroke="#979797" stroke-width="1.5" stroke-linecap="round" stroke-linejoin="round"/>
</svg>
