<svg width="16" height="16" viewBox="0 0 16 16" fill="none" xmlns="http://www.w3.org/2000/svg">
<path d="M8.66665 7.33333H11.8666C12.6134 7.33333 12.9868 7.33333 13.272 7.47866C13.5229 7.60649 13.7268 7.81046 13.8547 8.06135C14 8.34656 14 8.71993 14 9.46667V14M8.66665 14V4.13333C8.66665 3.3866 8.66665 3.01323 8.52132 2.72801C8.39349 2.47713 8.18952 2.27316 7.93863 2.14532C7.65342 2 7.28005 2 6.53331 2H4.13331C3.38658 2 3.01321 2 2.72799 2.14532C2.47711 2.27316 2.27314 2.47713 2.1453 2.72801C1.99998 3.01323 1.99998 3.3866 1.99998 4.13333V14M14.6666 14H1.33331M4.33331 4.66667H6.33331M4.33331 7.33333H6.33331M4.33331 10H6.33331" stroke="#979797" stroke-linecap="round" stroke-linejoin="round"/>
</svg>
