<svg width="16" height="16" viewBox="0 0 16 16" fill="none" xmlns="http://www.w3.org/2000/svg">
<path d="M5.6 2H3.06667C2.6933 2 2.50661 2 2.36401 2.07266C2.23856 2.13658 2.13658 2.23856 2.07266 2.36401C2 2.50661 2 2.6933 2 3.06667V4.26667C2 4.64004 2 4.82672 2.07266 4.96933C2.13658 5.09477 2.23856 5.19676 2.36401 5.26067C2.50661 5.33333 2.6933 5.33333 3.06667 5.33333H5.6C5.97337 5.33333 6.16005 5.33333 6.30266 5.26067C6.4281 5.19676 6.53009 5.09477 6.594 4.96933C6.66667 4.82672 6.66667 4.64004 6.66667 4.26667V3.06667C6.66667 2.6933 6.66667 2.50661 6.594 2.36401C6.53009 2.23856 6.4281 2.13658 6.30266 2.07266C6.16005 2 5.97337 2 5.6 2Z" stroke="#212121" stroke-width="1.2" stroke-linecap="round" stroke-linejoin="round"/>
<path d="M12.9333 2H10.4C10.0266 2 9.83995 2 9.69734 2.07266C9.5719 2.13658 9.46991 2.23856 9.406 2.36401C9.33333 2.50661 9.33333 2.6933 9.33333 3.06667V6.93333C9.33333 7.3067 9.33333 7.49339 9.406 7.63599C9.46991 7.76144 9.5719 7.86342 9.69734 7.92734C9.83995 8 10.0266 8 10.4 8H12.9333C13.3067 8 13.4934 8 13.636 7.92734C13.7614 7.86342 13.8634 7.76144 13.9273 7.63599C14 7.49339 14 7.3067 14 6.93333V3.06667C14 2.6933 14 2.50661 13.9273 2.36401C13.8634 2.23856 13.7614 2.13658 13.636 2.07266C13.4934 2 13.3067 2 12.9333 2Z" stroke="#212121" stroke-width="1.2" stroke-linecap="round" stroke-linejoin="round"/>
<path d="M12.9333 10.6667H10.4C10.0266 10.6667 9.83995 10.6667 9.69734 10.7393C9.5719 10.8032 9.46991 10.9052 9.406 11.0307C9.33333 11.1733 9.33333 11.36 9.33333 11.7333V12.9333C9.33333 13.3067 9.33333 13.4934 9.406 13.636C9.46991 13.7614 9.5719 13.8634 9.69734 13.9273C9.83995 14 10.0266 14 10.4 14H12.9333C13.3067 14 13.4934 14 13.636 13.9273C13.7614 13.8634 13.8634 13.7614 13.9273 13.636C14 13.4934 14 13.3067 14 12.9333V11.7333C14 11.36 14 11.1733 13.9273 11.0307C13.8634 10.9052 13.7614 10.8032 13.636 10.7393C13.4934 10.6667 13.3067 10.6667 12.9333 10.6667Z" stroke="#212121" stroke-width="1.2" stroke-linecap="round" stroke-linejoin="round"/>
<path d="M5.6 8H3.06667C2.6933 8 2.50661 8 2.36401 8.07266C2.23856 8.13658 2.13658 8.23856 2.07266 8.36401C2 8.50661 2 8.6933 2 9.06667V12.9333C2 13.3067 2 13.4934 2.07266 13.636C2.13658 13.7614 2.23856 13.8634 2.36401 13.9273C2.50661 14 2.6933 14 3.06667 14H5.6C5.97337 14 6.16005 14 6.30266 13.9273C6.4281 13.8634 6.53009 13.7614 6.594 13.636C6.66667 13.4934 6.66667 13.3067 6.66667 12.9333V9.06667C6.66667 8.6933 6.66667 8.50661 6.594 8.36401C6.53009 8.23856 6.4281 8.13658 6.30266 8.07266C6.16005 8 5.97337 8 5.6 8Z" stroke="#212121" stroke-width="1.2" stroke-linecap="round" stroke-linejoin="round"/>
</svg>
