<svg width="20" height="20" viewBox="0 0 20 20" fill="none" xmlns="http://www.w3.org/2000/svg">
<path d="M7.49996 17.5V11.3333C7.49996 10.8666 7.49996 10.6333 7.59079 10.455C7.67068 10.2982 7.79817 10.1707 7.95497 10.0908C8.13323 10 8.36659 10 8.8333 10H11.1666C11.6333 10 11.8667 10 12.045 10.0908C12.2018 10.1707 12.3292 10.2982 12.4091 10.455C12.5 10.6333 12.5 10.8666 12.5 11.3333V17.5M1.66663 7.91667L9.19996 2.26667C9.48684 2.0515 9.63029 1.94392 9.78782 1.90245C9.92688 1.86585 10.073 1.86585 10.2121 1.90245C10.3696 1.94392 10.5131 2.05151 10.8 2.26667L18.3333 7.91667M3.3333 6.66667V14.8333C3.3333 15.7668 3.3333 16.2335 3.51495 16.59C3.67474 16.9036 3.92971 17.1586 4.24331 17.3183C4.59983 17.5 5.06654 17.5 5.99996 17.5H14C14.9334 17.5 15.4001 17.5 15.7566 17.3183C16.0702 17.1586 16.3252 16.9036 16.485 16.59C16.6666 16.2335 16.6666 15.7668 16.6666 14.8333V6.66667L11.6 2.86667C11.0262 2.43634 10.7393 2.22118 10.4242 2.13824C10.1461 2.06503 9.8538 2.06503 9.57568 2.13824C9.26061 2.22118 8.97373 2.43634 8.39996 2.86667L3.3333 6.66667Z" stroke="#008745" stroke-width="1.2" stroke-linecap="round" stroke-linejoin="round"/>
</svg>
