<svg width="32" height="33" viewBox="0 0 32 33" fill="none" xmlns="http://www.w3.org/2000/svg">
<path d="M9.81272 32.5001C13.8996 32.5001 17.2127 29.187 17.2127 25.1001C17.2127 21.0132 13.8996 17.7001 9.81272 17.7001C5.72581 17.7001 2.41272 21.0132 2.41272 25.1001C2.41272 29.187 5.72581 32.5001 9.81272 32.5001Z" fill="#108D33"/>
<path d="M9.81272 31.8936C13.8996 31.8936 17.2127 28.5805 17.2127 24.4936C17.2127 20.4067 13.8996 17.0936 9.81272 17.0936C5.72581 17.0936 2.41272 20.4067 2.41272 24.4936C2.41272 28.5805 5.72581 31.8936 9.81272 31.8936Z" fill="#118E34"/>
<path d="M9.81272 31.2858C13.8996 31.2858 17.2127 27.9727 17.2127 23.8858C17.2127 19.7989 13.8996 16.4858 9.81272 16.4858C5.72581 16.4858 2.41272 19.7989 2.41272 23.8858C2.41272 27.9727 5.72581 31.2858 9.81272 31.2858Z" fill="#128E35"/>
<path d="M9.81272 30.6794C13.8996 30.6794 17.2127 27.3663 17.2127 23.2794C17.2127 19.1925 13.8996 15.8794 9.81272 15.8794C5.72581 15.8794 2.41272 19.1925 2.41272 23.2794C2.41272 27.3663 5.72581 30.6794 9.81272 30.6794Z" fill="#138F36"/>
<path d="M9.81272 30.0729C13.8996 30.0729 17.2127 26.7599 17.2127 22.6729C17.2127 18.586 13.8996 15.2729 9.81272 15.2729C5.72581 15.2729 2.41272 18.586 2.41272 22.6729C2.41272 26.7599 5.72581 30.0729 9.81272 30.0729Z" fill="#148F36"/>
<path d="M9.81272 29.4652C13.8996 29.4652 17.2127 26.1521 17.2127 22.0652C17.2127 17.9783 13.8996 14.6652 9.81272 14.6652C5.72581 14.6652 2.41272 17.9783 2.41272 22.0652C2.41272 26.1521 5.72581 29.4652 9.81272 29.4652Z" fill="#159037"/>
<path d="M9.81272 28.8587C13.8996 28.8587 17.2127 25.5456 17.2127 21.4587C17.2127 17.3718 13.8996 14.0587 9.81272 14.0587C5.72581 14.0587 2.41272 17.3718 2.41272 21.4587C2.41272 25.5456 5.72581 28.8587 9.81272 28.8587Z" fill="#169138"/>
<path d="M9.81272 28.251C13.8996 28.251 17.2127 24.938 17.2127 20.851C17.2127 16.7641 13.8996 13.451 9.81272 13.451C5.72581 13.451 2.41272 16.7641 2.41272 20.851C2.41272 24.938 5.72581 28.251 9.81272 28.251Z" fill="#179139"/>
<path d="M9.81272 27.6446C13.8996 27.6446 17.2127 24.3315 17.2127 20.2446C17.2127 16.1577 13.8996 12.8446 9.81272 12.8446C5.72581 12.8446 2.41272 16.1577 2.41272 20.2446C2.41272 24.3315 5.72581 27.6446 9.81272 27.6446Z" fill="#18923A"/>
<path d="M9.81272 27.0382C13.8996 27.0382 17.2127 23.7251 17.2127 19.6382C17.2127 15.5513 13.8996 12.2382 9.81272 12.2382C5.72581 12.2382 2.41272 15.5513 2.41272 19.6382C2.41272 23.7251 5.72581 27.0382 9.81272 27.0382Z" fill="#19933B"/>
<path d="M9.81272 26.4304C13.8996 26.4304 17.2127 23.1173 17.2127 19.0304C17.2127 14.9435 13.8996 11.6304 9.81272 11.6304C5.72581 11.6304 2.41272 14.9435 2.41272 19.0304C2.41272 23.1173 5.72581 26.4304 9.81272 26.4304Z" fill="#1A933C"/>
<path d="M9.81272 25.8239C13.8996 25.8239 17.2127 22.5108 17.2127 18.4239C17.2127 14.337 13.8996 11.0239 9.81272 11.0239C5.72581 11.0239 2.41272 14.337 2.41272 18.4239C2.41272 22.5108 5.72581 25.8239 9.81272 25.8239Z" fill="#1B943C"/>
<path d="M9.81272 25.2161C13.8996 25.2161 17.2127 21.903 17.2127 17.8161C17.2127 13.7292 13.8996 10.4161 9.81272 10.4161C5.72581 10.4161 2.41272 13.7292 2.41272 17.8161C2.41272 21.903 5.72581 25.2161 9.81272 25.2161Z" fill="#1C943D"/>
<path d="M9.81272 24.6097C13.8996 24.6097 17.2127 21.2966 17.2127 17.2097C17.2127 13.1228 13.8996 9.80969 9.81272 9.80969C5.72581 9.80969 2.41272 13.1228 2.41272 17.2097C2.41272 21.2966 5.72581 24.6097 9.81272 24.6097Z" fill="#1D953E"/>
<path d="M9.81272 24.0032C13.8996 24.0032 17.2127 20.6902 17.2127 16.6032C17.2127 12.5163 13.8996 9.20325 9.81272 9.20325C5.72581 9.20325 2.41272 12.5163 2.41272 16.6032C2.41272 20.6902 5.72581 24.0032 9.81272 24.0032Z" fill="#1E963F"/>
<path d="M9.81272 23.3956C13.8996 23.3956 17.2127 20.0825 17.2127 15.9956C17.2127 11.9087 13.8996 8.59558 9.81272 8.59558C5.72581 8.59558 2.41272 11.9087 2.41272 15.9956C2.41272 20.0825 5.72581 23.3956 9.81272 23.3956Z" fill="#1F9640"/>
<path d="M9.81272 22.7891C13.8996 22.7891 17.2127 19.476 17.2127 15.3891C17.2127 11.3022 13.8996 7.98914 9.81272 7.98914C5.72581 7.98914 2.41272 11.3022 2.41272 15.3891C2.41272 19.476 5.72581 22.7891 9.81272 22.7891Z" fill="#209741"/>
<path d="M9.81272 22.1827C13.8996 22.1827 17.2127 18.8696 17.2127 14.7827C17.2127 10.6958 13.8996 7.38269 9.81272 7.38269C5.72581 7.38269 2.41272 10.6958 2.41272 14.7827C2.41272 18.8696 5.72581 22.1827 9.81272 22.1827Z" fill="#219842"/>
<path d="M9.81272 21.5749C13.8996 21.5749 17.2127 18.2618 17.2127 14.1749C17.2127 10.088 13.8996 6.7749 9.81272 6.7749C5.72581 6.7749 2.41272 10.088 2.41272 14.1749C2.41272 18.2618 5.72581 21.5749 9.81272 21.5749Z" fill="#229842"/>
<path d="M9.81272 20.9685C13.8996 20.9685 17.2127 17.6554 17.2127 13.5685C17.2127 9.48155 13.8996 6.16846 9.81272 6.16846C5.72581 6.16846 2.41272 9.48155 2.41272 13.5685C2.41272 17.6554 5.72581 20.9685 9.81272 20.9685Z" fill="#239943"/>
<path d="M9.81272 20.3607C13.8996 20.3607 17.2127 17.0476 17.2127 12.9607C17.2127 8.87376 13.8996 5.56067 9.81272 5.56067C5.72581 5.56067 2.41272 8.87376 2.41272 12.9607C2.41272 17.0476 5.72581 20.3607 9.81272 20.3607Z" fill="#249944"/>
<path d="M9.81272 19.7542C13.8996 19.7542 17.2127 16.4411 17.2127 12.3542C17.2127 8.26732 13.8996 4.95422 9.81272 4.95422C5.72581 4.95422 2.41272 8.26732 2.41272 12.3542C2.41272 16.4411 5.72581 19.7542 9.81272 19.7542Z" fill="#259A45"/>
<path d="M9.81272 19.1478C13.8996 19.1478 17.2127 15.8347 17.2127 11.7478C17.2127 7.66087 13.8996 4.34778 9.81272 4.34778C5.72581 4.34778 2.41272 7.66087 2.41272 11.7478C2.41272 15.8347 5.72581 19.1478 9.81272 19.1478Z" fill="#269B46"/>
<path d="M9.81272 18.5401C13.8996 18.5401 17.2127 15.227 17.2127 11.1401C17.2127 7.05321 13.8996 3.74011 9.81272 3.74011C5.72581 3.74011 2.41272 7.05321 2.41272 11.1401C2.41272 15.227 5.72581 18.5401 9.81272 18.5401Z" fill="#279B47"/>
<path d="M9.81272 17.9337C13.8996 17.9337 17.2127 14.6206 17.2127 10.5337C17.2127 6.44676 13.8996 3.13367 9.81272 3.13367C5.72581 3.13367 2.41272 6.44676 2.41272 10.5337C2.41272 14.6206 5.72581 17.9337 9.81272 17.9337Z" fill="#289C48"/>
<path d="M9.81272 17.3259C13.8996 17.3259 17.2127 14.0128 17.2127 9.92588C17.2127 5.83897 13.8996 2.52588 9.81272 2.52588C5.72581 2.52588 2.41272 5.83897 2.41272 9.92588C2.41272 14.0128 5.72581 17.3259 9.81272 17.3259Z" fill="#299C48"/>
<path d="M9.81272 16.7194C13.8996 16.7194 17.2127 13.4063 17.2127 9.31943C17.2127 5.23253 13.8996 1.91943 9.81272 1.91943C5.72581 1.91943 2.41272 5.23253 2.41272 9.31943C2.41272 13.4063 5.72581 16.7194 9.81272 16.7194Z" fill="#2A9D49"/>
<path d="M9.81272 16.113C13.8996 16.113 17.2127 12.7999 17.2127 8.71299C17.2127 4.62608 13.8996 1.31299 9.81272 1.31299C5.72581 1.31299 2.41272 4.62608 2.41272 8.71299C2.41272 12.7999 5.72581 16.113 9.81272 16.113Z" fill="#2B9E4A"/>
<path d="M9.81272 15.5052C13.8996 15.5052 17.2127 12.1921 17.2127 8.1052C17.2127 4.01829 13.8996 0.7052 9.81272 0.7052C5.72581 0.7052 2.41272 4.01829 2.41272 8.1052C2.41272 12.1921 5.72581 15.5052 9.81272 15.5052Z" fill="#2C9E4B"/>
<path d="M10.3004 15.3865C14.3873 15.3865 17.7004 12.0735 17.7004 7.98655C17.7004 3.89964 14.3873 0.586548 10.3004 0.586548C6.21348 0.586548 2.90039 3.89964 2.90039 7.98655C2.90039 12.0735 6.21348 15.3865 10.3004 15.3865Z" fill="#2D9F4C"/>
<path d="M10.9068 15.3865C14.9937 15.3865 18.3068 12.0735 18.3068 7.98655C18.3068 3.89964 14.9937 0.586548 10.9068 0.586548C6.81993 0.586548 3.50684 3.89964 3.50684 7.98655C3.50684 12.0735 6.81993 15.3865 10.9068 15.3865Z" fill="#2EA04D"/>
<path d="M11.5133 15.3865C15.6002 15.3865 18.9133 12.0735 18.9133 7.98655C18.9133 3.89964 15.6002 0.586548 11.5133 0.586548C7.42637 0.586548 4.11328 3.89964 4.11328 7.98655C4.11328 12.0735 7.42637 15.3865 11.5133 15.3865Z" fill="#2FA04E"/>
<path d="M12.1209 15.3865C16.2079 15.3865 19.5209 12.0735 19.5209 7.98655C19.5209 3.89964 16.2079 0.586548 12.1209 0.586548C8.03404 0.586548 4.72095 3.89964 4.72095 7.98655C4.72095 12.0735 8.03404 15.3865 12.1209 15.3865Z" fill="#30A14E"/>
<path d="M12.7278 15.3865C16.8147 15.3865 20.1278 12.0735 20.1278 7.98655C20.1278 3.89964 16.8147 0.586548 12.7278 0.586548C8.64085 0.586548 5.32776 3.89964 5.32776 7.98655C5.32776 12.0735 8.64085 15.3865 12.7278 15.3865Z" fill="#31A14F"/>
<path d="M13.3352 15.3865C17.4221 15.3865 20.7352 12.0735 20.7352 7.98655C20.7352 3.89964 17.4221 0.586548 13.3352 0.586548C9.24827 0.586548 5.93518 3.89964 5.93518 7.98655C5.93518 12.0735 9.24827 15.3865 13.3352 15.3865Z" fill="#32A250"/>
<path d="M13.942 15.3865C18.0289 15.3865 21.342 12.0735 21.342 7.98655C21.342 3.89964 18.0289 0.586548 13.942 0.586548C9.85509 0.586548 6.54199 3.89964 6.54199 7.98655C6.54199 12.0735 9.85509 15.3865 13.942 15.3865Z" fill="#33A351"/>
<path d="M14.5484 15.3865C18.6353 15.3865 21.9484 12.0735 21.9484 7.98655C21.9484 3.89964 18.6353 0.586548 14.5484 0.586548C10.4615 0.586548 7.14844 3.89964 7.14844 7.98655C7.14844 12.0735 10.4615 15.3865 14.5484 15.3865Z" fill="#34A352"/>
<path d="M15.1559 15.3865C19.2428 15.3865 22.5559 12.0735 22.5559 7.98655C22.5559 3.89964 19.2428 0.586548 15.1559 0.586548C11.069 0.586548 7.75586 3.89964 7.75586 7.98655C7.75586 12.0735 11.069 15.3865 15.1559 15.3865Z" fill="#35A453"/>
<path d="M15.7623 15.3865C19.8492 15.3865 23.1623 12.0735 23.1623 7.98655C23.1623 3.89964 19.8492 0.586548 15.7623 0.586548C11.6754 0.586548 8.3623 3.89964 8.3623 7.98655C8.3623 12.0735 11.6754 15.3865 15.7623 15.3865Z" fill="#36A554"/>
<path d="M16.3687 15.3865C20.4557 15.3865 23.7688 12.0735 23.7688 7.98655C23.7688 3.89964 20.4557 0.586548 16.3687 0.586548C12.2818 0.586548 8.96875 3.89964 8.96875 7.98655C8.96875 12.0735 12.2818 15.3865 16.3687 15.3865Z" fill="#37A554"/>
<path d="M16.9768 15.3865C21.0637 15.3865 24.3768 12.0735 24.3768 7.98655C24.3768 3.89964 21.0637 0.586548 16.9768 0.586548C12.8899 0.586548 9.57678 3.89964 9.57678 7.98655C9.57678 12.0735 12.8899 15.3865 16.9768 15.3865Z" fill="#38A655"/>
<path d="M17.5829 15.3865C21.6698 15.3865 24.9829 12.0735 24.9829 7.98655C24.9829 3.89964 21.6698 0.586548 17.5829 0.586548C13.496 0.586548 10.1829 3.89964 10.1829 7.98655C10.1829 12.0735 13.496 15.3865 17.5829 15.3865Z" fill="#39A656"/>
<path d="M18.191 15.3865C22.2779 15.3865 25.591 12.0735 25.591 7.98655C25.591 3.89964 22.2779 0.586548 18.191 0.586548C14.1041 0.586548 10.791 3.89964 10.791 7.98655C10.791 12.0735 14.1041 15.3865 18.191 15.3865Z" fill="#3AA757"/>
<path d="M18.7975 15.3865C22.8844 15.3865 26.1975 12.0735 26.1975 7.98655C26.1975 3.89964 22.8844 0.586548 18.7975 0.586548C14.7106 0.586548 11.3975 3.89964 11.3975 7.98655C11.3975 12.0735 14.7106 15.3865 18.7975 15.3865Z" fill="#3BA858"/>
<path d="M19.4039 15.3865C23.4908 15.3865 26.8039 12.0735 26.8039 7.98655C26.8039 3.89964 23.4908 0.586548 19.4039 0.586548C15.317 0.586548 12.0039 3.89964 12.0039 7.98655C12.0039 12.0735 15.317 15.3865 19.4039 15.3865Z" fill="#3CA859"/>
<path d="M20.0113 15.3865C24.0982 15.3865 27.4113 12.0735 27.4113 7.98655C27.4113 3.89964 24.0982 0.586548 20.0113 0.586548C15.9244 0.586548 12.6113 3.89964 12.6113 7.98655C12.6113 12.0735 15.9244 15.3865 20.0113 15.3865Z" fill="#3DA95A"/>
<path d="M20.6178 15.3865C24.7047 15.3865 28.0178 12.0735 28.0178 7.98655C28.0178 3.89964 24.7047 0.586548 20.6178 0.586548C16.5309 0.586548 13.2178 3.89964 13.2178 7.98655C13.2178 12.0735 16.5309 15.3865 20.6178 15.3865Z" fill="#3EA95A"/>
<path d="M21.2258 15.3865C25.3127 15.3865 28.6258 12.0735 28.6258 7.98655C28.6258 3.89964 25.3127 0.586548 21.2258 0.586548C17.1389 0.586548 13.8258 3.89964 13.8258 7.98655C13.8258 12.0735 17.1389 15.3865 21.2258 15.3865Z" fill="#3FAA5B"/>
<path d="M21.8319 15.3865C25.9188 15.3865 29.2319 12.0735 29.2319 7.98655C29.2319 3.89964 25.9188 0.586548 21.8319 0.586548C17.745 0.586548 14.4319 3.89964 14.4319 7.98655C14.4319 12.0735 17.745 15.3865 21.8319 15.3865Z" fill="#40AB5C"/>
<path d="M22.4383 15.3865C26.5252 15.3865 29.8383 12.0735 29.8383 7.98655C29.8383 3.89964 26.5252 0.586548 22.4383 0.586548C18.3514 0.586548 15.0383 3.89964 15.0383 7.98655C15.0383 12.0735 18.3514 15.3865 22.4383 15.3865Z" fill="#41AB5D"/>
<path d="M23.0465 15.3865C27.1334 15.3865 30.4465 12.0735 30.4465 7.98655C30.4465 3.89964 27.1334 0.586548 23.0465 0.586548C18.9596 0.586548 15.6465 3.89964 15.6465 7.98655C15.6465 12.0735 18.9596 15.3865 23.0465 15.3865Z" fill="#42AC5E"/>
<path d="M23.6529 15.3865C27.7398 15.3865 31.0529 12.0735 31.0529 7.98655C31.0529 3.89964 27.7398 0.586548 23.6529 0.586548C19.566 0.586548 16.2529 3.89964 16.2529 7.98655C16.2529 12.0735 19.566 15.3865 23.6529 15.3865Z" fill="#43AD5F"/>
<path d="M24.259 15.3865C28.3459 15.3865 31.659 12.0735 31.659 7.98655C31.659 3.89964 28.3459 0.586548 24.259 0.586548C20.1721 0.586548 16.859 3.89964 16.859 7.98655C16.859 12.0735 20.1721 15.3865 24.259 15.3865Z" fill="#44AD60"/>
<path d="M24.5637 15.6896C28.6506 15.6896 31.9637 12.3766 31.9637 8.28965C31.9637 4.20274 28.6506 0.889648 24.5637 0.889648C20.4768 0.889648 17.1637 4.20274 17.1637 8.28965C17.1637 12.3766 20.4768 15.6896 24.5637 15.6896Z" fill="#44AE60"/>
<path d="M24.5637 16.2962C28.6506 16.2962 31.9637 12.9831 31.9637 8.89622C31.9637 4.80931 28.6506 1.49622 24.5637 1.49622C20.4768 1.49622 17.1637 4.80931 17.1637 8.89622C17.1637 12.9831 20.4768 16.2962 24.5637 16.2962Z" fill="#45AE61"/>
<path d="M24.5637 16.9039C28.6506 16.9039 31.9637 13.5908 31.9637 9.50388C31.9637 5.41697 28.6506 2.10388 24.5637 2.10388C20.4768 2.10388 17.1637 5.41697 17.1637 9.50388C17.1637 13.5908 20.4768 16.9039 24.5637 16.9039Z" fill="#46AF62"/>
<path d="M24.5637 17.5104C28.6506 17.5104 31.9637 14.1974 31.9637 10.1104C31.9637 6.02354 28.6506 2.71045 24.5637 2.71045C20.4768 2.71045 17.1637 6.02354 17.1637 10.1104C17.1637 14.1974 20.4768 17.5104 24.5637 17.5104Z" fill="#47B063"/>
<path d="M24.5637 18.1168C28.6506 18.1168 31.9637 14.8037 31.9637 10.7168C31.9637 6.62987 28.6506 3.31677 24.5637 3.31677C20.4768 3.31677 17.1637 6.62987 17.1637 10.7168C17.1637 14.8037 20.4768 18.1168 24.5637 18.1168Z" fill="#48B064"/>
<path d="M24.5637 18.7247C28.6506 18.7247 31.9637 15.4116 31.9637 11.3247C31.9637 7.23778 28.6506 3.92468 24.5637 3.92468C20.4768 3.92468 17.1637 7.23778 17.1637 11.3247C17.1637 15.4116 20.4768 18.7247 24.5637 18.7247Z" fill="#49B165"/>
<path d="M24.5637 19.3309C28.6506 19.3309 31.9637 16.0178 31.9637 11.9309C31.9637 7.84398 28.6506 4.53088 24.5637 4.53088C20.4768 4.53088 17.1637 7.84398 17.1637 11.9309C17.1637 16.0178 20.4768 19.3309 24.5637 19.3309Z" fill="#4AB266"/>
<path d="M24.5637 19.9376C28.6506 19.9376 31.9637 16.6245 31.9637 12.5376C31.9637 8.45067 28.6506 5.13757 24.5637 5.13757C20.4768 5.13757 17.1637 8.45067 17.1637 12.5376C17.1637 16.6245 20.4768 19.9376 24.5637 19.9376Z" fill="#4BB266"/>
<path d="M24.5637 20.5452C28.6506 20.5452 31.9637 17.2321 31.9637 13.1452C31.9637 9.05833 28.6506 5.74524 24.5637 5.74524C20.4768 5.74524 17.1637 9.05833 17.1637 13.1452C17.1637 17.2321 20.4768 20.5452 24.5637 20.5452Z" fill="#4CB367"/>
<path d="M24.5637 21.1516C28.6506 21.1516 31.9637 17.8385 31.9637 13.7516C31.9637 9.66465 28.6506 6.35156 24.5637 6.35156C20.4768 6.35156 17.1637 9.66465 17.1637 13.7516C17.1637 17.8385 20.4768 21.1516 24.5637 21.1516Z" fill="#4DB368"/>
<path d="M24.5637 21.7595C28.6506 21.7595 31.9637 18.4464 31.9637 14.3595C31.9637 10.2726 28.6506 6.95947 24.5637 6.95947C20.4768 6.95947 17.1637 10.2726 17.1637 14.3595C17.1637 18.4464 20.4768 21.7595 24.5637 21.7595Z" fill="#4EB469"/>
<path d="M24.5637 22.3658C28.6506 22.3658 31.9637 19.0527 31.9637 14.9658C31.9637 10.8789 28.6506 7.5658 24.5637 7.5658C20.4768 7.5658 17.1637 10.8789 17.1637 14.9658C17.1637 19.0527 20.4768 22.3658 24.5637 22.3658Z" fill="#4FB56A"/>
<path d="M24.5637 22.9724C28.6506 22.9724 31.9637 19.6593 31.9637 15.5724C31.9637 11.4855 28.6506 8.17236 24.5637 8.17236C20.4768 8.17236 17.1637 11.4855 17.1637 15.5724C17.1637 19.6593 20.4768 22.9724 24.5637 22.9724Z" fill="#50B56B"/>
<path d="M24.5637 23.5802C28.6506 23.5802 31.9637 20.2671 31.9637 16.1802C31.9637 12.0932 28.6506 8.78015 24.5637 8.78015C20.4768 8.78015 17.1637 12.0932 17.1637 16.1802C17.1637 20.2671 20.4768 23.5802 24.5637 23.5802Z" fill="#51B66C"/>
<path d="M24.5637 24.1866C28.6506 24.1866 31.9637 20.8735 31.9637 16.7866C31.9637 12.6997 28.6506 9.3866 24.5637 9.3866C20.4768 9.3866 17.1637 12.6997 17.1637 16.7866C17.1637 20.8735 20.4768 24.1866 24.5637 24.1866Z" fill="#52B66C"/>
<path d="M24.5637 24.7943C28.6506 24.7943 31.9637 21.4812 31.9637 17.3943C31.9637 13.3074 28.6506 9.99426 24.5637 9.99426C20.4768 9.99426 17.1637 13.3074 17.1637 17.3943C17.1637 21.4812 20.4768 24.7943 24.5637 24.7943Z" fill="#53B76D"/>
<path d="M24.5637 25.4006C28.6506 25.4006 31.9637 22.0875 31.9637 18.0006C31.9637 13.9137 28.6506 10.6006 24.5637 10.6006C20.4768 10.6006 17.1637 13.9137 17.1637 18.0006C17.1637 22.0875 20.4768 25.4006 24.5637 25.4006Z" fill="#54B86E"/>
<path d="M24.5637 26.0072C28.6506 26.0072 31.9637 22.6941 31.9637 18.6072C31.9637 14.5202 28.6506 11.2072 24.5637 11.2072C20.4768 11.2072 17.1637 14.5202 17.1637 18.6072C17.1637 22.6941 20.4768 26.0072 24.5637 26.0072Z" fill="#55B86F"/>
<path d="M24.5637 26.6148C28.6506 26.6148 31.9637 23.3017 31.9637 19.2148C31.9637 15.1279 28.6506 11.8148 24.5637 11.8148C20.4768 11.8148 17.1637 15.1279 17.1637 19.2148C17.1637 23.3017 20.4768 26.6148 24.5637 26.6148Z" fill="#56B970"/>
<path d="M24.5637 27.2214C28.6506 27.2214 31.9637 23.9083 31.9637 19.8214C31.9637 15.7345 28.6506 12.4214 24.5637 12.4214C20.4768 12.4214 17.1637 15.7345 17.1637 19.8214C17.1637 23.9083 20.4768 27.2214 24.5637 27.2214Z" fill="#57BA71"/>
<path d="M24.5637 27.8278C28.6506 27.8278 31.9637 24.5147 31.9637 20.4278C31.9637 16.3409 28.6506 13.0278 24.5637 13.0278C20.4768 13.0278 17.1637 16.3409 17.1637 20.4278C17.1637 24.5147 20.4768 27.8278 24.5637 27.8278Z" fill="#58BA72"/>
<path d="M24.5637 28.4356C28.6506 28.4356 31.9637 25.1225 31.9637 21.0356C31.9637 16.9487 28.6506 13.6356 24.5637 13.6356C20.4768 13.6356 17.1637 16.9487 17.1637 21.0356C17.1637 25.1225 20.4768 28.4356 24.5637 28.4356Z" fill="#59BB72"/>
<path d="M24.5637 29.0421C28.6506 29.0421 31.9637 25.729 31.9637 21.6421C31.9637 17.5552 28.6506 14.2421 24.5637 14.2421C20.4768 14.2421 17.1637 17.5552 17.1637 21.6421C17.1637 25.729 20.4768 29.0421 24.5637 29.0421Z" fill="#5ABB73"/>
<path d="M24.5637 29.6496C28.6506 29.6496 31.9637 26.3365 31.9637 22.2496C31.9637 18.1627 28.6506 14.8496 24.5637 14.8496C20.4768 14.8496 17.1637 18.1627 17.1637 22.2496C17.1637 26.3365 20.4768 29.6496 24.5637 29.6496Z" fill="#5BBC74"/>
<path d="M24.3948 30.0871C28.4817 30.0871 31.7948 26.774 31.7948 22.6871C31.7948 18.6002 28.4817 15.2871 24.3948 15.2871C20.3078 15.2871 16.9948 18.6002 16.9948 22.6871C16.9948 26.774 20.3078 30.0871 24.3948 30.0871Z" fill="#5CBD75"/>
<path d="M23.787 30.0871C27.8739 30.0871 31.187 26.774 31.187 22.6871C31.187 18.6002 27.8739 15.2871 23.787 15.2871C19.7001 15.2871 16.387 18.6002 16.387 22.6871C16.387 26.774 19.7001 30.0871 23.787 30.0871Z" fill="#5DBD76"/>
<path d="M23.1803 30.0871C27.2672 30.0871 30.5803 26.774 30.5803 22.6871C30.5803 18.6002 27.2672 15.2871 23.1803 15.2871C19.0934 15.2871 15.7803 18.6002 15.7803 22.6871C15.7803 26.774 19.0934 30.0871 23.1803 30.0871Z" fill="#5EBE77"/>
<path d="M22.5741 30.0871C26.661 30.0871 29.9741 26.774 29.9741 22.6871C29.9741 18.6002 26.661 15.2871 22.5741 15.2871C18.4872 15.2871 15.1741 18.6002 15.1741 22.6871C15.1741 26.774 18.4872 30.0871 22.5741 30.0871Z" fill="#5FBF78"/>
<path d="M21.966 30.0871C26.0529 30.0871 29.366 26.774 29.366 22.6871C29.366 18.6002 26.0529 15.2871 21.966 15.2871C17.8791 15.2871 14.566 18.6002 14.566 22.6871C14.566 26.774 17.8791 30.0871 21.966 30.0871Z" fill="#60BF78"/>
<path d="M21.3596 30.0871C25.4465 30.0871 28.7596 26.774 28.7596 22.6871C28.7596 18.6002 25.4465 15.2871 21.3596 15.2871C17.2727 15.2871 13.9596 18.6002 13.9596 22.6871C13.9596 26.774 17.2727 30.0871 21.3596 30.0871Z" fill="#61C079"/>
<path d="M20.7522 30.0871C24.8391 30.0871 28.1522 26.774 28.1522 22.6871C28.1522 18.6002 24.8391 15.2871 20.7522 15.2871C16.6653 15.2871 13.3522 18.6002 13.3522 22.6871C13.3522 26.774 16.6653 30.0871 20.7522 30.0871Z" fill="#62C07A"/>
<path d="M20.1457 30.0871C24.2326 30.0871 27.5457 26.774 27.5457 22.6871C27.5457 18.6002 24.2326 15.2871 20.1457 15.2871C16.0588 15.2871 12.7457 18.6002 12.7457 22.6871C12.7457 26.774 16.0588 30.0871 20.1457 30.0871Z" fill="#63C17B"/>
<path d="M19.5393 30.0871C23.6262 30.0871 26.9393 26.774 26.9393 22.6871C26.9393 18.6002 23.6262 15.2871 19.5393 15.2871C15.4524 15.2871 12.1393 18.6002 12.1393 22.6871C12.1393 26.774 15.4524 30.0871 19.5393 30.0871Z" fill="#64C27C"/>
<path d="M18.9312 30.0871C23.0182 30.0871 26.3313 26.774 26.3313 22.6871C26.3313 18.6002 23.0182 15.2871 18.9312 15.2871C14.8443 15.2871 11.5312 18.6002 11.5312 22.6871C11.5312 26.774 14.8443 30.0871 18.9312 30.0871Z" fill="#65C27D"/>
<path d="M18.3251 30.0871C22.412 30.0871 25.725 26.774 25.725 22.6871C25.725 18.6002 22.412 15.2871 18.3251 15.2871C14.2381 15.2871 10.925 18.6002 10.925 22.6871C10.925 26.774 14.2381 30.0871 18.3251 30.0871Z" fill="#66C37E"/>
<path d="M17.717 30.0871C21.8039 30.0871 25.117 26.774 25.117 22.6871C25.117 18.6002 21.8039 15.2871 17.717 15.2871C13.6301 15.2871 10.317 18.6002 10.317 22.6871C10.317 26.774 13.6301 30.0871 17.717 30.0871Z" fill="#67C37E"/>
<path d="M17.1106 30.0871C21.1975 30.0871 24.5106 26.774 24.5106 22.6871C24.5106 18.6002 21.1975 15.2871 17.1106 15.2871C13.0237 15.2871 9.71057 18.6002 9.71057 22.6871C9.71057 26.774 13.0237 30.0871 17.1106 30.0871Z" fill="#68C47F"/>
<path d="M16.5041 30.0871C20.591 30.0871 23.9041 26.774 23.9041 22.6871C23.9041 18.6002 20.591 15.2871 16.5041 15.2871C12.4172 15.2871 9.10413 18.6002 9.10413 22.6871C9.10413 26.774 12.4172 30.0871 16.5041 30.0871Z" fill="#69C580"/>
<path d="M15.8967 30.0871C19.9836 30.0871 23.2967 26.774 23.2967 22.6871C23.2967 18.6002 19.9836 15.2871 15.8967 15.2871C11.8098 15.2871 8.4967 18.6002 8.4967 22.6871C8.4967 26.774 11.8098 30.0871 15.8967 30.0871Z" fill="#6AC581"/>
<path d="M15.2903 30.0871C19.3772 30.0871 22.6903 26.774 22.6903 22.6871C22.6903 18.6002 19.3772 15.2871 15.2903 15.2871C11.2034 15.2871 7.89026 18.6002 7.89026 22.6871C7.89026 26.774 11.2034 30.0871 15.2903 30.0871Z" fill="#6BC682"/>
<path d="M14.6834 30.0871C18.7704 30.0871 22.0834 26.774 22.0834 22.6871C22.0834 18.6002 18.7704 15.2871 14.6834 15.2871C10.5965 15.2871 7.28345 18.6002 7.28345 22.6871C7.28345 26.774 10.5965 30.0871 14.6834 30.0871Z" fill="#6CC783"/>
<path d="M14.076 30.0871C18.1629 30.0871 21.476 26.774 21.476 22.6871C21.476 18.6002 18.1629 15.2871 14.076 15.2871C9.98912 15.2871 6.67603 18.6002 6.67603 22.6871C6.67603 26.774 9.98912 30.0871 14.076 30.0871Z" fill="#6DC784"/>
<path d="M13.4696 30.0871C17.5565 30.0871 20.8696 26.774 20.8696 22.6871C20.8696 18.6002 17.5565 15.2871 13.4696 15.2871C9.38267 15.2871 6.06958 18.6002 6.06958 22.6871C6.06958 26.774 9.38267 30.0871 13.4696 30.0871Z" fill="#6EC884"/>
<path d="M12.8615 30.0871C16.9485 30.0871 20.2615 26.774 20.2615 22.6871C20.2615 18.6002 16.9485 15.2871 12.8615 15.2871C8.77464 15.2871 5.46155 18.6002 5.46155 22.6871C5.46155 26.774 8.77464 30.0871 12.8615 30.0871Z" fill="#6FC885"/>
<path d="M12.2551 30.0871C16.342 30.0871 19.6551 26.774 19.6551 22.6871C19.6551 18.6002 16.342 15.2871 12.2551 15.2871C8.1682 15.2871 4.8551 18.6002 4.8551 22.6871C4.8551 26.774 8.1682 30.0871 12.2551 30.0871Z" fill="#70C986"/>
<path d="M11.649 30.0871C15.7359 30.0871 19.049 26.774 19.049 22.6871C19.049 18.6002 15.7359 15.2871 11.649 15.2871C7.56212 15.2871 4.24902 18.6002 4.24902 22.6871C4.24902 26.774 7.56212 30.0871 11.649 30.0871Z" fill="#71CA87"/>
<path d="M11.0409 30.0871C15.1278 30.0871 18.4409 26.774 18.4409 22.6871C18.4409 18.6002 15.1278 15.2871 11.0409 15.2871C6.95396 15.2871 3.64087 18.6002 3.64087 22.6871C3.64087 26.774 6.95396 30.0871 11.0409 30.0871Z" fill="#72CA88"/>
<path d="M10.4344 30.0871C14.5213 30.0871 17.8344 26.774 17.8344 22.6871C17.8344 18.6002 14.5213 15.2871 10.4344 15.2871C6.34752 15.2871 3.03442 18.6002 3.03442 22.6871C3.03442 26.774 6.34752 30.0871 10.4344 30.0871Z" fill="#73CB89"/>
<path d="M9.827 30.0871C13.9139 30.0871 17.227 26.774 17.227 22.6871C17.227 18.6002 13.9139 15.2871 9.827 15.2871C5.7401 15.2871 2.427 18.6002 2.427 22.6871C2.427 26.774 5.7401 30.0871 9.827 30.0871Z" fill="#74CC8A"/>
<path d="M9.22056 30.0871C13.3075 30.0871 16.6206 26.774 16.6206 22.6871C16.6206 18.6002 13.3075 15.2871 9.22056 15.2871C5.13365 15.2871 1.82056 18.6002 1.82056 22.6871C1.82056 26.774 5.13365 30.0871 9.22056 30.0871Z" fill="#75CC8A"/>
<path d="M8.61387 30.0871C12.7008 30.0871 16.0139 26.774 16.0139 22.6871C16.0139 18.6002 12.7008 15.2871 8.61387 15.2871C4.52696 15.2871 1.21387 18.6002 1.21387 22.6871C1.21387 26.774 4.52696 30.0871 8.61387 30.0871Z" fill="#76CD8B"/>
<path d="M8.00608 30.0871C12.093 30.0871 15.4061 26.774 15.4061 22.6871C15.4061 18.6002 12.093 15.2871 8.00608 15.2871C3.91917 15.2871 0.606079 18.6002 0.606079 22.6871C0.606079 26.774 3.91917 30.0871 8.00608 30.0871Z" fill="#77CD8C"/>
<path d="M7.4 30.0871C11.4869 30.0871 14.8 26.774 14.8 22.6871C14.8 18.6002 11.4869 15.2871 7.4 15.2871C3.31309 15.2871 0 18.6002 0 22.6871C0 26.774 3.31309 30.0871 7.4 30.0871Z" fill="#78CE8D"/>
<path d="M9.99731 0.5H13.9999V3.42516C13.9999 4.52968 13.1031 5.42645 11.9986 5.42645C10.8941 5.42645 9.99731 4.52968 9.99731 3.42516V0.5Z" fill="white"/>
<path d="M20.4297 0.5H24.4323V3.42516C24.4323 4.52968 23.5355 5.42645 22.431 5.42645C21.3265 5.42645 20.4297 4.52968 20.4297 3.42516V0.5Z" fill="white"/>
<path d="M24.5636 11.7697H9.86687C9.27977 11.7697 8.80493 11.2936 8.80493 10.7078C8.80493 10.122 9.28106 9.64587 9.86687 9.64587H24.5636C25.1507 9.64587 25.6256 10.122 25.6256 10.7078C25.6256 11.2936 25.1494 11.7697 24.5636 11.7697Z" fill="white"/>
<path d="M15.7494 23.9452C15.4772 23.9452 15.2036 23.8407 14.9972 23.633L10.7378 19.3568C10.3236 18.9413 10.3249 18.2691 10.7404 17.8549C11.1559 17.4407 11.8281 17.442 12.2423 17.8575L15.7662 21.3942L22.1985 15.2226C22.6217 14.8162 23.2939 14.8304 23.7004 15.2536C24.1069 15.6768 24.0927 16.3491 23.6694 16.7555L16.4849 23.6497C16.2798 23.8471 16.0139 23.9452 15.7494 23.9452Z" fill="white"/>
</svg>
