<svg width="16" height="16" viewBox="0 0 16 16" fill="none" xmlns="http://www.w3.org/2000/svg">
<path d="M12.6666 6.66669V2.66669M10.6666 4.66669H14.6666M10.6666 14V13.2C10.6666 12.0799 10.6666 11.5199 10.4487 11.092C10.2569 10.7157 9.95095 10.4098 9.57463 10.218C9.1468 10 8.58675 10 7.46665 10H4.53331C3.41321 10 2.85316 10 2.42533 10.218C2.04901 10.4098 1.74305 10.7157 1.5513 11.092C1.33331 11.5199 1.33331 12.0799 1.33331 13.2V14M8.33331 5.00002C8.33331 6.28868 7.28864 7.33335 5.99998 7.33335C4.71132 7.33335 3.66665 6.28868 3.66665 5.00002C3.66665 3.71136 4.71132 2.66669 5.99998 2.66669C7.28864 2.66669 8.33331 3.71136 8.33331 5.00002Z" stroke="#212121" stroke-linecap="round" stroke-linejoin="round"/>
</svg>
